<?xml version="1.0" standalone="no"?><!DOCTYPE svg PUBLIC "-//W3C//DTD SVG 1.1//EN" "http://www.w3.org/Graphics/SVG/1.1/DTD/svg11.dtd"><svg t="1587890420222" class="icon" viewBox="0 0 1024 1024" version="1.1" xmlns="http://www.w3.org/2000/svg" p-id="1136" width="32" height="32" xmlns:xlink="http://www.w3.org/1999/xlink"><defs><style type="text/css"></style></defs><path d="M472 472V120a8 8 0 0 1 8-8h64a8 8 0 0 1 8 8v352h352a8 8 0 0 1 8 8v64a8 8 0 0 1-8 8H552v352a8 8 0 0 1-8 8h-64a8 8 0 0 1-8-8V552H120a8 8 0 0 1-8-8v-64a8 8 0 0 1 8-8h352z" p-id="1137" fill="#aaaaaa"></path></svg>