<?xml version="1.0" standalone="no"?><!DOCTYPE svg PUBLIC "-//W3C//DTD SVG 1.1//EN" "http://www.w3.org/Graphics/SVG/1.1/DTD/svg11.dtd"><svg t="1588082617855" class="icon" viewBox="0 0 1024 1024" version="1.1" xmlns="http://www.w3.org/2000/svg" p-id="1164" xmlns:xlink="http://www.w3.org/1999/xlink" width="32" height="32"><defs><style type="text/css"></style></defs><path d="M699.2384 280.2688l-173.568 174.08-173.568-173.568c-15.872-15.872-41.984-15.872-57.856 0-15.872 15.872-15.872 41.984 0 57.856l173.568 173.568-173.568 173.568c-15.872 15.872-15.872 41.984 0 57.856 15.872 15.872 41.984 15.872 57.856 0l173.568-173.568 173.568 173.568c15.872 15.872 41.984 15.872 57.856 0 15.872-15.872 15.872-41.984 0-57.856l-173.568-173.568 173.568-173.568c15.872-15.872 15.872-41.984 0-57.856-15.872-16.384-41.472-16.384-57.856-0.512z" p-id="1165"></path></svg>